<svg width="199" height="193" viewBox="0 0 199 193" fill="none" xmlns="http://www.w3.org/2000/svg">
<circle cx="30" cy="152" r="30" fill="black"/>
<circle cx="30" cy="152" r="30" fill="white"/>
<line x1="56" y1="155" x2="134" y2="155" stroke="white" stroke-width="8"/>
<circle cx="30" cy="152" r="24" fill="#CF7900"/>
<path d="M173.019 177.813C158.67 186.097 140.323 181.181 132.038 166.832C123.754 152.483 128.67 134.136 143.019 125.851C157.368 117.567 175.716 122.483 184 136.832C192.284 151.181 187.368 169.529 173.019 177.813Z" fill="black"/>
<path d="M173.019 177.813C158.67 186.097 140.323 181.181 132.038 166.832C123.754 152.483 128.67 134.136 143.019 125.851C157.368 117.567 175.716 122.483 184 136.832C192.284 151.181 187.368 169.529 173.019 177.813Z" fill="white"/>
<line x1="104.421" y1="64.9974" x2="143.421" y2="132.547" stroke="white" stroke-width="8"/>
<circle cx="158.019" cy="151.832" r="24" transform="rotate(60 158.019 151.832)" fill="#C42E47"/>
<circle cx="93.9808" cy="40.9808" r="30" transform="rotate(-60 93.9808 40.9808)" fill="black"/>
<circle cx="93.9808" cy="40.9808" r="30" transform="rotate(-60 93.9808 40.9808)" fill="white"/>
<line x1="45.5788" y1="130.815" x2="84.5788" y2="63.2654" stroke="white" stroke-width="8"/>
<circle cx="93.9808" cy="40.9808" r="24" transform="rotate(-60 93.9808 40.9808)" fill="#005FCC"/>
</svg>
