<svg width="176" height="161" viewBox="0 0 176 161" fill="none" xmlns="http://www.w3.org/2000/svg">
<path d="M35.4999 26.5001C8.3722 23.5936 3.99995 40.5 3.99994 50.5C3.99993 60.5 14.7679 66.9386 23 77C32 88 -1.32435 118.861 20 128C41 137 58.5 72.6434 70.9999 128C83.4998 183.357 163.5 147 109 108.5C98.3016 100.942 91 64 147.5 83.5C180.686 94.9536 179 35.5002 147.5 39.0001C116 42.5 125 45.0001 102 39.0001C88.8567 35.5714 111 16 84.9999 5.99999C58.9999 -4.00001 63.5 29.5 35.4999 26.5001Z" stroke="white" stroke-width="8"/>
</svg>
